<svg width="32" height="32" viewBox="0 0 32 32" fill="none" xmlns="http://www.w3.org/2000/svg">
    <path d="M5.67708 22.1185C4.18664 19.6039 3.6653 16.6318 4.21094 13.76C4.75658 10.8883 6.33167 8.31446 8.64051 6.52174C10.9494 4.72901 13.8332 3.84068 16.7506 4.02351C19.668 4.20634 22.4183 5.44777 24.4853 7.51473C26.5522 9.58169 27.7937 12.332 27.9765 15.2494C28.1593 18.1668 27.271 21.0506 25.4783 23.3595C23.6855 25.6683 21.1117 27.2434 18.24 27.7891C15.3682 28.3347 12.3961 27.8134 9.88145 26.3229V26.3229L5.72713 27.4991C5.55693 27.5489 5.37647 27.552 5.20466 27.5081C5.03286 27.4641 4.87604 27.3748 4.75064 27.2494C4.62525 27.124 4.53589 26.9671 4.49195 26.7953C4.448 26.6235 4.45108 26.4431 4.50086 26.2729L5.67708 22.1185Z" stroke="currentColor" stroke-width="2" stroke-linecap="round" stroke-linejoin="round"/>
    <path d="M21 13L14.3333 20L11 16.5" stroke="currentColor" stroke-width="2" stroke-linecap="round" stroke-linejoin="round"/>
</svg>
