<svg width="24" height="24" viewBox="0 0 24 24" fill="none" xmlns="http://www.w3.org/2000/svg">
    <ellipse cx="4.70142" cy="4.72728" rx="2.70142" ry="2.72728" fill="currentColor"/>
    <ellipse cx="4.70142" cy="12.0002" rx="2.70142" ry="2.72728" fill="currentColor"/>
    <path d="M6.77784 19.2727C6.77784 20.4394 5.8426 21.375 4.70142 21.375C3.56025 21.375 2.625 20.4394 2.625 19.2727C2.625 18.106 3.56025 17.1704 4.70142 17.1704C5.8426 17.1704 6.77784 18.106 6.77784 19.2727Z" stroke="currentColor" stroke-width="1.25"/>
    <path d="M13.9819 4.72728C13.9819 5.89397 13.0467 6.82956 11.9055 6.82956C10.7643 6.82956 9.8291 5.89397 9.8291 4.72728C9.8291 3.5606 10.7643 2.625 11.9055 2.625C13.0467 2.625 13.9819 3.5606 13.9819 4.72728Z" stroke="currentColor" stroke-width="1.25"/>
    <path d="M13.9819 12.0002C13.9819 13.1669 13.0467 14.1025 11.9055 14.1025C10.7643 14.1025 9.8291 13.1669 9.8291 12.0002C9.8291 10.8335 10.7643 9.89795 11.9055 9.89795C13.0467 9.89795 13.9819 10.8335 13.9819 12.0002Z" stroke="currentColor" stroke-width="1.25"/>
    <ellipse cx="11.9055" cy="19.2732" rx="2.70142" ry="2.72728" fill="currentColor"/>
    <ellipse cx="19.1086" cy="4.72728" rx="2.70142" ry="2.72728" fill="currentColor"/>
    <ellipse cx="19.2991" cy="12.0954" rx="2.70142" ry="2.72728" fill="currentColor"/>
    <ellipse cx="19.1086" cy="19.2732" rx="2.70142" ry="2.72728" fill="currentColor"/>
</svg>
