<svg width="32" height="32" viewBox="0 0 32 32" fill="none" xmlns="http://www.w3.org/2000/svg">
    <path d="M4.97147 25.2132L11.5352 7.16574C11.591 7.01156 11.6849 6.87397 11.8081 6.76573C11.9312 6.65749 12.0797 6.5821 12.2398 6.54657C12.3999 6.51104 12.5664 6.51651 12.7238 6.56247C12.8812 6.60843 13.0244 6.6934 13.1402 6.80949L24.6252 18.2945C24.741 18.4104 24.8257 18.5536 24.8714 18.711C24.9171 18.8683 24.9223 19.0346 24.8867 19.1945C24.8511 19.3544 24.7756 19.5027 24.6674 19.6257C24.5592 19.7488 24.4218 19.8425 24.2677 19.8982L6.22022 26.462C6.04593 26.5257 5.85708 26.5382 5.6759 26.4981C5.49473 26.4581 5.32876 26.3671 5.19756 26.2359C5.06635 26.1047 4.97537 25.9387 4.93531 25.7576C4.89526 25.5764 4.9078 25.3875 4.97147 25.2132Z" stroke="currentColor" stroke-width="2" stroke-linecap="round" stroke-linejoin="round"/>
    <path d="M20.9102 8.52344C20.9102 8.52344 20.9102 5.52344 23.9102 5.52344C26.9102 5.52344 26.9102 2.52344 26.9102 2.52344" stroke="currentColor" stroke-width="2" stroke-linecap="round" stroke-linejoin="round"/>
    <path d="M17.9102 1.52344V4.52344" stroke="currentColor" stroke-width="2" stroke-linecap="round" stroke-linejoin="round"/>
    <path d="M26.9102 13.5234L28.9102 15.5234" stroke="currentColor" stroke-width="2" stroke-linecap="round" stroke-linejoin="round"/>
    <path d="M26.9102 9.52344L29.9102 8.52344" stroke="currentColor" stroke-width="2" stroke-linecap="round" stroke-linejoin="round"/>
    <path d="M9.67139 12.2847L19.1489 21.7622" stroke="currentColor" stroke-width="2" stroke-linecap="round" stroke-linejoin="round"/>
    <path d="M12.549 24.1623L7.27148 18.8848" stroke="currentColor" stroke-width="2" stroke-linecap="round" stroke-linejoin="round"/>
</svg>
