<svg width="32" height="32" viewBox="0 0 32 32" fill="none" xmlns="http://www.w3.org/2000/svg">
    <path d="M27 27V14.4425C27 14.3031 26.9708 14.1653 26.9144 14.0379C26.858 13.9104 26.7756 13.7962 26.6725 13.7025L16.6725 4.25998C16.4884 4.09239 16.2484 3.99951 15.9994 3.99951C15.7504 3.99951 15.5104 4.09239 15.3263 4.25998L5.32625 13.7025C5.22334 13.7963 5.14116 13.9106 5.08498 14.038C5.0288 14.1655 4.99986 14.3032 5 14.4425V27" stroke="currentColor" stroke-width="2" stroke-linecap="round" stroke-linejoin="round"/>
    <path d="M2 27H30" stroke="currentColor" stroke-width="2" stroke-linecap="round" stroke-linejoin="round"/>
    <path d="M19 27V20C19 19.7348 18.8946 19.4804 18.7071 19.2929C18.5196 19.1054 18.2652 19 18 19H14C13.7348 19 13.4804 19.1054 13.2929 19.2929C13.1054 19.4804 13 19.7348 13 20V27" stroke="currentColor" stroke-width="2" stroke-linecap="round" stroke-linejoin="round"/>
</svg>
