<svg width="24" height="24" viewBox="0 0 24 24" fill="none" xmlns="http://www.w3.org/2000/svg">
    <path d="M9 15L15 9" stroke="currentColor" stroke-width="2" stroke-linecap="round" stroke-linejoin="round"/>
    <path d="M10.5 7.13547L13.3181 4.32297C14.1644 3.49041 15.3053 3.02597 16.4924 3.0308C17.6795 3.03563 18.8166 3.50936 19.6561 4.34878C20.4955 5.18821 20.9692 6.32532 20.974 7.51244C20.9789 8.69955 20.5144 9.84049 19.6819 10.6867L16.8638 13.5002" stroke="currentColor" stroke-width="2" stroke-linecap="round" stroke-linejoin="round"/>
    <path d="M7.13529 10.5L4.32279 13.3181C3.49023 14.1644 3.02578 15.3053 3.03062 16.4924C3.03545 17.6795 3.50917 18.8166 4.3486 19.6561C5.18802 20.4955 6.32514 20.9692 7.51226 20.974C8.69937 20.9789 9.84031 20.5144 10.6865 19.6819L13.5 16.8638" stroke="currentColor" stroke-width="2" stroke-linecap="round" stroke-linejoin="round"/>
</svg>
