<svg width="32" height="32" viewBox="0 0 32 32" fill="none" xmlns="http://www.w3.org/2000/svg">
    <path d="M3.875 16.82V16.945H4H9.58999H15.055V21.59V26.235H10.4101H5.76499L5.75933 22.4156L5.75349 18.4714L5.75331 18.3475L5.62942 18.3466L4.81518 18.3405L4.00093 18.3345L3.875 18.3335V18.4595V23.2297V28V28.125H4H16H28H28.125V28V16V4V3.875H28H16H4H3.875V4V10.41V16.82ZM21.5938 16.945H26.235V18.795V20.645H22.41H18.4601H18.3351V20.77V21.5899V22.4099V22.5347L18.4599 22.5349L22.404 22.5407L26.2238 22.5464L26.2293 24.3911L26.2348 26.235H21.5786H16.9219V21.6054C16.9219 20.298 16.9237 19.1077 16.9264 18.2434C16.9278 17.8111 16.9295 17.4605 16.9313 17.2175C16.9322 17.1078 16.933 17.0202 16.9339 16.957C16.9973 16.9561 17.0851 16.9553 17.1953 16.9544C17.4389 16.9526 17.7904 16.9509 18.2236 16.9495C19.0901 16.9468 20.2832 16.945 21.5938 16.945ZM15.055 10.41V15.055H10.41H5.76504V10.41V5.76504H10.41H15.055V10.41ZM26.2293 9.82693C26.2309 10.975 26.2304 12.0186 26.2283 12.7751C26.2272 13.1534 26.2258 13.4598 26.224 13.6714C26.2239 13.6852 26.2237 13.6985 26.2236 13.7114C26.1854 13.6737 26.1421 13.6308 26.094 13.5832C25.8797 13.371 25.5709 13.0641 25.1904 12.6852C24.4296 11.9275 23.3824 10.8823 22.2327 9.73255L18.2656 5.76537L22.1557 5.77077L26.2236 5.77641L26.2293 9.82693ZM20.9241 11.0874L24.8916 15.055H20.9952H16.9219V10.999C16.9219 9.8494 16.9239 8.80434 16.927 8.04677C16.9286 7.66794 16.9305 7.36118 16.9325 7.14922C16.9327 7.13513 16.9328 7.12147 16.9329 7.10824C16.9713 7.1461 17.0147 7.18904 17.0629 7.23681C17.2772 7.449 17.586 7.75595 17.9665 8.13482C18.7273 8.89254 19.7744 9.93771 20.9241 11.0874Z" fill="currentColor" stroke="currentColor" stroke-width="0.25"/>
</svg>
